<?xml version="1.0" standalone="no"?>
<!DOCTYPE svg PUBLIC "-//W3C//DTD SVG 20010904//EN"
 "http://www.w3.org/TR/2001/REC-SVG-20010904/DTD/svg10.dtd">
<svg version="1.0" xmlns="http://www.w3.org/2000/svg"
 width="512.000000pt" height="512.000000pt" viewBox="0 0 512.000000 512.000000"
 preserveAspectRatio="xMidYMid meet">

<g transform="translate(0.000000,512.000000) scale(0.100000,-0.100000)"
fill="#000000" stroke="none">
<path d="M2321 5110 c-497 -48 -990 -251 -1376 -565 -114 -92 -294 -274 -384
-387 -229 -287 -417 -675 -495 -1023 -49 -218 -60 -325 -60 -575 0 -250 11
-357 60 -575 79 -355 272 -749 509 -1040 92 -114 274 -294 387 -384 287 -229
675 -417 1023 -495 218 -49 325 -60 575 -60 250 0 357 11 575 60 261 58 603
204 828 353 389 259 688 599 893 1016 125 255 196 484 241 775 24 161 24 539
0 700 -45 291 -116 520 -241 775 -134 272 -283 480 -498 692 -211 209 -404
346 -673 478 -252 124 -486 197 -765 240 -126 19 -468 27 -599 15z m559 -246
c508 -74 967 -303 1324 -660 359 -358 581 -804 662 -1329 12 -77 17 -172 17
-315 0 -378 -75 -698 -240 -1032 -343 -693 -980 -1152 -1768 -1274 -151 -23
-479 -23 -630 0 -525 81 -971 303 -1329 662 -359 358 -581 804 -662 1329 -23
151 -23 479 0 630 42 267 111 492 223 717 337 680 970 1144 1733 1268 193 32
468 33 670 4z"/>
<path d="M1730 3701 c-87 -28 -136 -57 -195 -116 -59 -59 -93 -118 -119 -204
-14 -48 -16 -145 -16 -821 0 -833 -1 -808 56 -922 31 -61 121 -151 182 -182
114 -57 89 -56 922 -56 833 0 808 -1 922 56 61 31 151 121 182 182 57 114 56
89 56 922 0 833 1 808 -56 922 -31 61 -121 151 -182 182 -114 58 -88 56 -926
55 -711 0 -775 -1 -826 -18z m1640 -501 l0 -170 -170 0 -170 0 0 170 0 170
170 0 170 0 0 -170z m-665 -200 c195 -67 315 -235 315 -440 0 -168 -80 -311
-221 -398 -137 -84 -341 -84 -478 0 -141 87 -221 230 -221 398 0 202 114 366
305 437 81 30 217 31 300 3z m-839 -437 c0 -141 16 -212 76 -333 83 -167 259
-307 448 -357 86 -23 252 -23 340 0 188 49 365 190 448 357 61 124 77 192 75
333 l-1 117 119 0 119 0 0 -432 c0 -414 -1 -435 -21 -478 -27 -60 -54 -88
-114 -116 l-50 -24 -745 0 -745 0 -50 24 c-60 28 -87 56 -114 116 -20 43 -21
64 -21 478 l0 432 118 0 118 0 0 -117z"/>
</g>
</svg>
