<?xml version="1.0" standalone="no"?>
<!DOCTYPE svg PUBLIC "-//W3C//DTD SVG 20010904//EN"
 "http://www.w3.org/TR/2001/REC-SVG-20010904/DTD/svg10.dtd">
<svg version="1.0" xmlns="http://www.w3.org/2000/svg"
 width="512.000000pt" height="512.000000pt" viewBox="0 0 512.000000 512.000000"
 preserveAspectRatio="xMidYMid meet">

<g transform="translate(0.000000,512.000000) scale(0.100000,-0.100000)"
fill="#000000" stroke="none">
<path d="M2321 5110 c-497 -48 -990 -251 -1376 -565 -114 -92 -294 -274 -384
-387 -229 -287 -417 -675 -495 -1023 -49 -218 -60 -325 -60 -575 0 -250 11
-357 60 -575 79 -355 272 -749 509 -1040 92 -114 274 -294 387 -384 287 -229
675 -417 1023 -495 218 -49 325 -60 575 -60 250 0 357 11 575 60 261 58 603
204 828 353 389 259 688 599 893 1016 125 255 196 484 241 775 24 161 24 539
0 700 -45 291 -116 520 -241 775 -134 272 -283 480 -498 692 -211 209 -404
346 -673 478 -252 124 -486 197 -765 240 -126 19 -468 27 -599 15z m559 -246
c508 -74 967 -303 1324 -660 359 -358 581 -804 662 -1329 12 -77 17 -172 17
-315 0 -378 -75 -698 -240 -1032 -343 -693 -980 -1152 -1768 -1274 -151 -23
-479 -23 -630 0 -525 81 -971 303 -1329 662 -359 358 -581 804 -662 1329 -23
151 -23 479 0 630 42 267 111 492 223 717 337 680 970 1144 1733 1268 193 32
468 33 670 4z"/>
<path d="M2455 3599 c-304 -44 -538 -184 -690 -414 -67 -102 -89 -155 -116
-284 -47 -226 5 -412 157 -563 58 -58 105 -82 145 -76 18 2 26 16 40 68 26 93
24 119 -11 162 -52 62 -73 138 -74 258 -1 123 11 174 68 285 144 283 506 414
841 304 76 -25 126 -55 186 -114 108 -105 143 -199 143 -380 0 -314 -117 -570
-299 -656 -121 -57 -209 -48 -286 30 -45 44 -69 96 -69 146 0 12 25 108 55
215 88 312 91 337 39 416 -75 115 -213 124 -317 20 -103 -103 -132 -256 -81
-416 l26 -81 -85 -347 c-99 -400 -117 -495 -117 -612 0 -95 18 -257 30 -280
19 -33 124 114 220 309 35 71 78 213 133 441 6 25 12 47 13 49 2 2 19 -12 38
-31 108 -105 285 -143 460 -98 283 72 479 303 556 655 83 384 -70 733 -395
898 -148 75 -441 121 -610 96z"/>
</g>
</svg>
